<svg id="User" xmlns="http://www.w3.org/2000/svg" width="74" height="74" viewBox="0 0 74 74">
  <path id="Tracé_13" data-name="Tracé 13" d="M23.053,49.576,11.32,54.92a10.744,10.744,0,0,0-1.883,1.119,44.01,44.01,0,0,0,25.32,7.722,44.08,44.08,0,0,0,25.173-7.613,10.745,10.745,0,0,0-2.069-1.157L45.3,49.745a4,4,0,0,1-2.649-3.579V42.05a16.624,16.624,0,0,0,1.189-1.276A22.832,22.832,0,0,0,47.742,34.2a3.435,3.435,0,0,0,2.8-3.135V26.672a3.078,3.078,0,0,0-1.315-2.435V17.886S50.789,8,34.758,8,20.29,17.886,20.29,17.886v6.352a3.074,3.074,0,0,0-1.315,2.435v4.394a3.211,3.211,0,0,0,1.819,2.765,20.811,20.811,0,0,0,4.757,8.219v4.015A3.965,3.965,0,0,1,23.053,49.576Z" transform="translate(2.257 10.239)" fill="#fff"/>
  <g id="Groupe_6" data-name="Groupe 6">
    <path id="Tracé_14" data-name="Tracé 14" d="M37.634.006C17.2-.349.355,16.172.006,36.9A37.664,37.664,0,0,0,13.192,66.251a9.835,9.835,0,0,1,1.755-1.267l11.04-6.111a4.587,4.587,0,0,0,2.35-4.017V50.267a25.039,25.039,0,0,1-4.476-9.4,3.781,3.781,0,0,1-1.712-3.161V32.684A3.775,3.775,0,0,1,23.386,29.9V22.637s-1.47-11.3,13.614-11.3,13.614,11.3,13.614,11.3V29.9a3.77,3.77,0,0,1,1.237,2.784v5.024a3.761,3.761,0,0,1-2.633,3.585,27.768,27.768,0,0,1-3.675,7.515,18.084,18.084,0,0,1-1.118,1.459v4.707a4.581,4.581,0,0,0,2.492,4.092l11.822,6a9.836,9.836,0,0,1,1.941,1.32,37.659,37.659,0,0,0,13.315-28.2C74.346,17.455,58.067.36,37.634.006Z" transform="translate(0 0)" fill="#dfe2ea"/>
  </g>
</svg>
