<svg xmlns="http://www.w3.org/2000/svg" xmlns:xlink="http://www.w3.org/1999/xlink" width="1664.89" height="389" viewBox="0 0 1664.89 389">
  <defs>
    <style>
      .cls-1 {
        clip-path: url(#clip-logo);
      }

      .cls-2 {
        fill: #449b23;
        stroke: #fca01f;
        stroke-width: 4px;
      }

      .cls-2, .cls-9 {
        stroke-miterlimit: 10;
      }

      .cls-3 {
        fill: #e13510;
      }

      .cls-4 {
        fill: #ae0018;
        opacity: 0.3;
      }

      .cls-4, .cls-8 {
        mix-blend-mode: multiply;
        isolation: isolate;
      }

      .cls-5 {
        fill: #161615;
      }

      .cls-6 {
        fill: #61bab7;
      }

      .cls-7, .cls-8 {
        fill: #009289;
      }

      .cls-9 {
        stroke: #fff;
        fill-rule: evenodd;
      }

      .cls-10 {
        fill: rgba(44,47,59,0);
      }
    </style>
    <clipPath id="clip-logo">
      <rect width="1664.89" height="389" />
    </clipPath>
  </defs>
  t
  <g id="logo" class="cls-1">
    <rect class="cls-10" width="1664.89" height="389" />
    <g transform="translate(-208.026 -66.688)">
      <path class="cls-2" d="M600.723,300.8c-7.327-2.273-9.13-7.484-8.973-14.222.628-28.288-9.324-52.19-29.971-71.5-4.155-3.88-6.937-8.15-5.525-13.909.233-12.225-4.546-18.572-16.105-21.2-4.427-1.018-9.167-1.489-13.323.547-5.326,2.586-10.066,1.569-15.358-.195-12.929-4.271-26.248-6.934-39.962-5.445a107.253,107.253,0,0,1-25.547-.509c-.471-.042-.9-.08-1.37-.157-1.144-.157-2.162-.184-3.222-.256-.788-4.389-3.383-6.49-9.749-9.149-6.819-2.82-13.829-5.131-20.685-7.955-10.541-4.384-11.131-6.267-6.39-16.609,4.469-9.795,11.4-18.026,17.165-26.956,2.154-3.409,5.364-7.056,2.739-11.246-2.23-3.566-6.462-2.9-10.185-2.823-2.04.08-4.114.08-6.153.118-25.938.746-51.915,1.45-77.853,1.764q-23.8.292-47.6.038c-6.505-.038-11.949,1.489-15.125,8.189-10.97,22.961-22.644,45.609-33.186,68.765-6.466,14.142.433,26.053,15.792,29.7,7.166,1.726,14.417,3.176,19.785,4.351,3.524.314,5.169.432,6.818.627,12.887,1.569,13.438,2.744,8.579,14.456-5.8,14.027-11.479,28.135-16.927,42.276-6.777,17.632-.938,28.449,17.631,32.757,9.6,2.235,19.238,4.308,28.919,6.153,21.469,4.113,23.742,4.465,18.921,30.128-3.015,16.1-5.992,32.286-11.008,48-2.392,7.484-3.172,15.244-3.41,23.08-.233,6.776,3.253,10.342,9.4,12.692,7.209,2.705,11.559-.624,15.906-5.678q13.7-15.87,27.545-31.7,5.338-6.129,10.66-12.274a34.733,34.733,0,0,0,7.519,2.479,31.507,31.507,0,0,0,9.757.826c7.679-.826,14.459,1.29,21.274,4.661,10.3,5.134,20.922,8.9,32.875,9.167,1.565.039,3.172.119,4.74.238,10.932.861,21.041,4.033,28.835,14.26,7.014,9.13,16.652,8.7,26.409,2.039a25.031,25.031,0,0,0,10.5-14.654,14.69,14.69,0,0,1,7.014-9.481c16.262-9.953,30.878-21.669,40.317-38.829.394-.705.785-1.332,1.217-1.959a15.275,15.275,0,0,1,13.79-6.975c4.625.2,8.9-1.489,13.009-3.41,7.993-3.761,8.425-11.716,9.6-18.806C610.908,305.776,606.091,302.443,600.723,300.8Z" />
      <g>
        <g>
          <path class="cls-3" d="M443.138,245.826c6.505,2.273,8.541,6.975,7.836,13.518-.665,6.31-3.214,11.754-6.309,17.2-12.5,21.821-27.817,41.61-43.374,61.239-11.322,14.261-22.8,28.406-34.75,42.12-7.171,8.226-14.5,16.338-22.062,24.212-3.448,3.566-6.9,10.423-12.773,7.366-6.542-3.409-2.192-10.343-1.526-15.634a116.244,116.244,0,0,1,4.231-19.235,318.857,318.857,0,0,0,11.323-51.643c2.31-16.338-.276-19.981-16.847-23.157-9.677-1.84-19.357-3.68-28.916-6.072-27.977-7.09-23.7-12.81-18.182-31.382a171.791,171.791,0,0,1,15.714-37.3c1.451-2.51,3.016-4.9,4.389-7.446,4.5-8.463,3.448-10.7-5.682-12.3-2.039-.394-4.075-.551-6.114-.823-2.036-.313-4.075-.589-7.327-1.1-9.558-.314-19.591-4.469-29.933-6.975-7.484-1.8-10.461-6.467-7.874-13.79,8.345-24.021,17.084-47.92,32.086-68.923,3.058-4.27,7.094-4.974,11.755-5.325,13.832-1.018,27.7-1.374,41.572-1.531,8.7-.115,17.4-.115,26.1-.115,13.556,0,27.113-.314,40.631-.237,10.266.08,11.6,2.391,6.856,11.8-3.1,6.229-6.737,12.221-9.913,18.412-6.857,13.4-4.037,20.57,9.833,25.51,5.407,1.917,10.855,3.761,16.262,5.72,12.068,4.465,13.947,7.874,10.3,20.413-2.9,9.834-5.682,19.705-9.638,29.229-5.017,12.144-2.82,16.728,9.6,21.664C434.6,242.887,438.868,244.338,443.138,245.826Z" />
          <path class="cls-4" d="M319.914,268.279c-15.672-7.837,19.591-39.181,11.754-66.608-7.836-19.59-35.262-11.754-39.18-27.426-6.146-24.581,4.583-44.343,17.053-64.951-6.922.237-13.832.578-20.738,1.087-4.661.351-8.7,1.055-11.755,5.325-15,21-23.741,44.9-32.086,68.923-2.587,7.323.39,11.987,7.874,13.79,10.342,2.506,20.375,6.661,29.933,6.975,3.252.509,5.291.785,7.327,1.1,2.039.272,4.075.429,6.114.823,9.13,1.6,10.186,3.838,5.682,12.3-1.373,2.548-2.938,4.936-4.389,7.446a171.791,171.791,0,0,0-15.714,37.3c-5.521,18.572-9.8,24.292,18.182,31.382,9.559,2.392,19.239,4.232,28.916,6.072,16.571,3.176,19.157,6.819,16.847,23.157a318.857,318.857,0,0,1-11.323,51.643,116.244,116.244,0,0,0-4.231,19.235c-.666,5.291-5.016,12.225,1.526,15.634,5.877,3.057,9.325-3.8,12.773-7.366,7.564-7.874,14.891-15.986,22.062-24.212,7.35-8.437,14.49-17.066,21.557-25.755C382.588,317.572,359.435,290.861,319.914,268.279Z" />
          <path class="cls-5" d="M451.56,238.07c9.952,4.817,12.462,9.52,11.012,20.532-1.1,8.383-5.407,15.4-9.481,22.529-12.929,22.567-28.682,43.1-45.452,62.846-11.674,13.752-23.509,27.347-35.34,40.941l-5.758-5.012c11.949-13.714,23.428-27.859,34.75-42.12,15.557-19.629,30.877-39.418,43.374-61.239,3.1-5.449,5.644-10.893,6.309-17.2.7-6.543-1.331-11.245-7.836-13.518-4.27-1.488-8.543-2.939-12.733-4.584-12.42-4.936-14.617-9.52-9.6-21.664,3.956-9.524,6.738-19.4,9.638-29.229,3.643-12.539,1.764-15.948-10.3-20.413-5.407-1.959-10.855-3.8-16.262-5.72-13.87-4.94-16.69-12.11-9.833-25.51,3.176-6.191,6.818-12.183,9.913-18.412,4.741-9.4,3.41-11.716-6.856-11.8-13.518-.077-27.075.237-40.631.237-8.7,0-17.4,0-26.1.115l-.119-7.756c25.938-.314,51.915-1.018,77.853-1.764,2.039-.038,4.113-.038,6.153-.118,3.723-.077,7.955-.743,10.185,2.823,2.625,4.19-.585,7.837-2.739,11.246-5.763,8.93-12.7,17.161-17.165,26.956-4.741,10.342-4.151,12.225,6.39,16.609,6.856,2.824,13.866,5.135,20.685,7.955,9.01,3.762,10.541,6.31,9.952,15.986-.743,12.459-4.817,24.1-8.816,35.772-3.761,10.932-3.252,11.991,7.523,16.533C444.038,234.7,447.841,236.268,451.56,238.07Z" />
          <path class="cls-5" d="M281.789,264.361c-5.521,18.572-9.8,24.292,18.182,31.382,9.559,2.392,19.239,4.232,28.916,6.072,16.571,3.176,19.157,6.819,16.847,23.157a318.857,318.857,0,0,1-11.323,51.643,116.244,116.244,0,0,0-4.231,19.235c-.666,5.291-5.016,12.225,1.526,15.634,5.877,3.057,9.325-3.8,12.773-7.366,7.564-7.874,14.891-15.986,22.062-24.212l5.758,5.012q-13.815,15.87-27.545,31.7c-4.347,5.054-8.7,8.383-15.906,5.678-6.152-2.35-9.638-5.916-9.4-12.692.238-7.836,1.018-15.6,3.41-23.08,5.016-15.71,7.993-31.892,11.008-48,4.821-25.663,2.548-26.015-18.921-30.128-9.681-1.845-19.319-3.918-28.919-6.153-18.569-4.308-24.408-15.125-17.631-32.757,5.448-14.141,11.13-28.249,16.927-42.276,4.859-11.712,4.308-12.887-8.579-14.456-1.649-.2-3.294-.313-6.818-.627-5.368-1.175-12.619-2.625-19.785-4.351-15.359-3.642-22.258-15.553-15.792-29.7,10.542-23.156,22.216-45.8,33.186-68.765,3.176-6.7,8.62-8.227,15.125-8.189q23.8.292,47.6-.038l.119,7.756c-13.87.157-27.74.513-41.572,1.531-4.661.351-8.7,1.055-11.755,5.325-15,21-23.741,44.9-32.086,68.923-2.587,7.323.39,11.987,7.874,13.79,10.342,2.506,20.375,6.661,29.933,6.975,3.252.509,5.291.785,7.327,1.1,2.039.272,4.075.429,6.114.823,9.13,1.6,10.186,3.838,5.682,12.3-1.373,2.548-2.938,4.936-4.389,7.446A171.791,171.791,0,0,0,281.789,264.361Z" />
        </g>
        <g>
          <path id="Tracé_15" class="cls-6" d="M600.333,314.748c.47,5.564-2.939,9.91-6.819,10.186-5.758.352-6.975-2.273-7.094-6.072-.153-6,2.2-9.168,7.132-9.4C597.275,309.3,599.98,310.474,600.333,314.748Z" />
          <path id="Tracé_16" class="cls-6" d="M530.744,248.688c7.328.157,11.992,5.25,11.8,12.852-.2,9.05-5.212,14.575-13.205,14.418-7.8-.157-12.538-5.407-12.343-13.6C517.23,253.352,522.166,248.493,530.744,248.688Z" />
          <path id="Tracé_17" class="cls-6" d="M444.822,183.607c6.424.746,9.677,3.6,9.52,8.387-.2,6.073-5.445,10.186-12.891,10.224l-.979-.038c-6.738-.276-11.165-4.113-10.775-9.482.394-5.6,5.33-9.324,12.267-9.248C442.982,183.45,443.923,183.531,444.822,183.607Z" />
          <path id="Tracé_18" class="cls-6" d="M433.539,280.071c.076,5.487-2.977,9.168-7.561,9.129-4.86,0-9.21-4.151-9.719-9.244a8.23,8.23,0,0,1,7.955-8.934C429.345,270.708,433.462,274.7,433.539,280.071Z" />
          <path id="Tracé_19" class="cls-6" d="M512.252,390.642A7.774,7.774,0,0,1,513,393.03c-.707,4.779-4.312,6.581-8.387,7.484-4.465.98-7.993-.666-10.067-4.821a3.236,3.236,0,0,1,0-2.349C496.032,389.544,509.708,387.428,512.252,390.642Z" />
          <path class="cls-6" d="M393.183,339.745c6.386.471,11.559,7.993,11.441,16.533-.158,8.464-3.8,12.187-11.835,11.95-8.265-.233-13.438-5.759-13.243-14.222C379.741,345.974,386.246,339.194,393.183,339.745Z" />
          <path class="cls-5" d="M600.723,300.8c5.368,1.645,10.185,4.978,9.091,11.4-1.175,7.09-1.607,15.045-9.6,18.806-4.113,1.921-8.384,3.6-13.009,3.41a15.275,15.275,0,0,0-13.79,6.975l-7.836-2.43c10.342-15.4,16.219-33.694,15.554-52.619-.743-20.845-3.291-34.245-10.657-44.943-15.634-22.8-35.97-40.394-61.438-51.482-10.656-4.622-22.173-5.682-33.812-4.466-5.288.509-8.579,2.507-10.224,8.541-3.291,12.3-12.7,19.433-24.764,16.3l.234-8.112.979.038c7.446-.038,12.7-4.151,12.891-10.224.157-4.783-3.1-7.641-9.52-8.387l1.137-9.244a107.253,107.253,0,0,0,25.547.509c13.714-1.489,27.033,1.174,39.962,5.445,5.292,1.764,10.032,2.781,15.358.195,4.156-2.036,8.9-1.565,13.323-.547,11.559,2.625,16.338,8.972,16.105,21.2-1.412,5.759,1.37,10.029,5.525,13.909,20.647,19.315,30.6,43.217,29.971,71.5C591.593,293.314,593.4,298.525,600.723,300.8Zm-7.209,24.136c3.88-.276,7.289-4.622,6.819-10.186-.353-4.274-3.058-5.448-6.781-5.291-4.936.237-7.285,3.409-7.132,9.4C586.539,322.661,587.756,325.286,593.514,324.934Z" />
          <path class="cls-7" d="M581.133,286.342c.665,18.925-5.212,37.222-15.554,52.619-14.379,21.393-37.341,37.183-63.474,41.335a164.139,164.139,0,0,1-42.158,1.412,172.05,172.05,0,0,1-22.529-3.528,68.732,68.732,0,0,1-14.93-5.525c-6.191-2.9-9.4-6.972-9.011-14.337.7-12.933-5.639-21.943-17.474-26.841-4.546-1.879-8.188-4.427-8.778-9.363-4.465-36.2-4.974-71.505,23.2-100.225,8.269-8.464,15.986-15.164,29.818-11.6,12.068,3.133,21.473-4,24.764-16.3,1.645-6.034,4.936-8.032,10.224-8.541,11.639-1.216,23.156-.156,33.812,4.466,25.468,11.088,45.8,28.681,61.438,51.482C577.842,252.1,580.39,265.5,581.133,286.342Zm-28.8-26.489c.2-10.932-9.482-19.705-21.863-19.824-14.066-.157-24.331,9.13-24.255,21.94.119,12.7,10.228,21.707,24.488,21.825C544.106,283.913,552.061,275.1,552.336,259.853Zm-34.872,81.224c.118-7.993-4.78-12.929-12.891-13.048-10.893-.157-19.824,7.76-19.786,17.437.039,7.756,6.738,13.361,15.986,13.319C509.746,358.746,517.307,350.715,517.464,341.077ZM426.957,297.9c9.6-.233,16.258-8.853,16.1-20.879-.076-8.778-8.264-15.83-18.373-15.871-9.639-.077-18.141,8.306-18.1,17.788C406.659,288.535,416.963,298.135,426.957,297.9Z" />
          <path class="cls-8" d="M570.476,241.4a144.54,144.54,0,0,0-48.995-45.23,135.47,135.47,0,0,1,3.4,44.339,29.034,29.034,0,0,1,5.587-.479c12.381.119,22.058,8.892,21.863,19.824-.275,15.244-8.23,24.06-21.63,23.941a27.437,27.437,0,0,1-15.033-4.3c-8.127,20.3-21.228,38.412-39.035,51.471-20.238,12.65-48.629,17.107-70.434,7.1,5.131,5.05,7.732,11.8,7.273,20.252-.39,7.365,2.82,11.441,9.011,14.337a68.732,68.732,0,0,0,14.93,5.525,172.05,172.05,0,0,0,22.529,3.528,164.139,164.139,0,0,0,42.158-1.412c26.133-4.152,49.1-19.942,63.474-41.335,10.342-15.4,16.219-33.694,15.554-52.619C580.39,265.5,577.842,252.1,570.476,241.4Zm-69.7,117.386c-9.248.042-15.947-5.563-15.986-13.319-.038-9.677,8.893-17.594,19.786-17.437,8.111.119,13.009,5.055,12.891,13.048C517.307,350.715,509.746,358.746,500.773,358.785Z" />
          <path class="cls-8" d="M387.5,323.43c.941,3.688,3.784,5.9,7.373,7.542A50.1,50.1,0,0,1,387.5,323.43Z" />
          <path class="cls-5" d="M565.579,338.961l7.836,2.43c-.432.627-.823,1.254-1.217,1.959-9.439,17.16-24.055,28.876-40.317,38.829a14.69,14.69,0,0,0-7.014,9.481,25.031,25.031,0,0,1-10.5,14.654c-9.757,6.658-19.395,7.091-26.409-2.039-7.794-10.227-17.9-13.4-28.835-14.26l.823-8.307a164.139,164.139,0,0,0,42.158-1.412C528.238,376.144,551.2,360.354,565.579,338.961ZM513,393.03a7.774,7.774,0,0,0-.746-2.388c-2.544-3.214-16.22-1.1-17.708,2.7a3.236,3.236,0,0,0,0,2.349c2.074,4.155,5.6,5.8,10.067,4.821C508.686,399.611,512.291,397.809,513,393.03Z" />
          <path class="cls-5" d="M530.473,240.029c12.381.119,22.058,8.892,21.863,19.824-.275,15.244-8.23,24.06-21.63,23.941-14.26-.118-24.369-9.129-24.488-21.825C506.142,249.159,516.407,239.872,530.473,240.029Zm12.068,21.511c.2-7.6-4.469-12.7-11.8-12.852-8.578-.2-13.514,4.664-13.751,13.675-.2,8.188,4.545,13.438,12.343,13.6C537.329,276.115,542.342,270.59,542.541,261.54Z" />
          <path class="cls-5" d="M504.573,328.029c8.111.119,13.009,5.055,12.891,13.048-.157,9.638-7.718,17.669-16.691,17.708-9.248.042-15.947-5.563-15.986-13.319C484.749,335.789,493.68,327.872,504.573,328.029Z" />
          <path class="cls-5" d="M459.947,381.708l-.823,8.307c-1.568-.119-3.175-.2-4.74-.238-11.953-.271-22.571-4.033-32.875-9.167-6.815-3.371-13.6-5.487-21.274-4.661a31.507,31.507,0,0,1-9.757-.826c-19.082-3.995-25.977-19.591-15.4-35.967,3.447-5.288,4.075-9.914,3.214-16.024-1.607-11.322-3.88-22.724-2.862-34.283.471-5.288-1.332-9.482-5.131-13.243-5.525-5.525-7.641-12.539-7.171-20.256.628-10.657,5.759-17.085,16.338-18.221,6.582-.666,10.737-3.409,13.633-8.778,4.389-8.107,10.66-14.535,17.712-20.256A23.548,23.548,0,0,0,419.55,192.5c2.391-14.93,9.913-20.375,25.039-18.3.47.077.9.115,1.37.157l-1.137,9.244c-.9-.076-1.84-.157-2.858-.157-6.937-.076-11.873,3.647-12.267,9.248-.39,5.369,4.037,9.206,10.775,9.482l-.234,8.112c-13.832-3.567-21.549,3.133-29.818,11.6-28.169,28.72-27.66,64.021-23.2,100.225.59,4.936,4.232,7.484,8.778,9.363,11.835,4.9,18.178,13.908,17.474,26.841-.39,7.365,2.82,11.441,9.011,14.337a68.732,68.732,0,0,0,14.93,5.525A172.05,172.05,0,0,0,459.947,381.708Zm-55.323-25.43c.118-8.54-5.055-16.062-11.441-16.533-6.937-.551-13.442,6.229-13.637,14.261-.195,8.463,4.978,13.989,13.243,14.222C400.824,368.465,404.466,364.742,404.624,356.278Z" />
          <path class="cls-5" d="M443.058,277.018c.157,12.026-6.5,20.646-16.1,20.879-9.994.238-20.3-9.362-20.374-18.962-.039-9.482,8.463-17.865,18.1-17.788C434.794,261.188,442.982,268.24,443.058,277.018ZM425.978,289.2c4.584.039,7.637-3.642,7.561-9.129-.077-5.368-4.194-9.363-9.325-9.049a8.23,8.23,0,0,0-7.955,8.934C416.768,285.049,421.118,289.2,425.978,289.2Z" />
        </g>
      </g>
    </g>
    <g transform="translate(321 -389.644)">
      <path class="cls-9" d="M358.772,600.874c.474,4.9,1.054,9.02,1.23,13.163.915,21.675-1.075,23.215-20.333,12.893-6.893-3.687-12.584-1.726-19.042-.542-13.009,2.384-25.662,6.784-39.175,6.389-21.387-.619-31.454-7.427-37.462-25.987-6.389-19.73-1.334-37.758,13.464-49.219,9.579-7.4,20.855-10.075,32.346-11.8,6.519-.976,13.24-.534,19.87-.806,8.061-.326,17.771,1.836,20.428-9.2,2.321-9.593-1.117-18.259-8.69-24.516-15.919-13.163-33.963-11.507-51.9-5.7-10.206,3.307-19.724,8.674-29.782,12.507-4.554,1.726-10.206,2.578-12.946-3.106-2.076-4.28.929-7.85,3.809-10.973,20.521-22.24,71.264-28.884,97.284-13.1,16.64,10.1,22.936,26.429,24.624,43.945C354.645,557.083,360.043,579.068,358.772,600.874Zm-52.362-36.4c-12.343,1.224-24.075,1.836-34.358,8.008-9.882,5.916-12,15.075-9.9,25.832,1.874,9.548,7.743,15.239,17.144,14.667,17.5-1.06,34.366-5.365,49.443-14.828,7.162-4.493,8.658-11.617,7.866-19.592-1-10.012-8.9-10.793-16.184-12.226C315.57,565.369,310.6,565,306.41,564.47Z" transform="translate(86.762 44.561)" />
      <path class="cls-9" d="M231.835,546.236c29.434,1.317,49.822,26.451,42.311,54.561-7.1,26.552-24.9,46.128-51.41,53.074-28.24,7.4-54.523.666-74.16-23.207a38.958,38.958,0,0,1-5.436-8.271c-1.378-2.989-2.028-6.559.652-9.261,3.863-3.91,7.8-1.712,10.825,1.123,4.22,3.957,7.557,8.874,11.815,12.792,15.82,14.519,34.692,16.749,53.432,8.787,17.445-7.4,29.448-21.665,33.374-40.761,3.1-15.107-2.773-23.138-17.919-27.777-8.943-2.74-18.119-1.989-27.226-1.789-4.151.085-8.271.822-12.414,1.162-24.864,2.038-45.718-6.165-51.348-21.875-7.573-21.155-.045-38.95,14.885-54.444,32.213-33.459,67.2-27.165,98.28-12.877,6.529,3,10.346,8.417,9.866,15.9-.512,8.022-4.7,12.932-12.993,10.346-7.047-2.2-13.406-6.521-20.289-9.354-26.236-10.779-54.282-3.113-68.686,18.53-11.849,17.826-4.849,32.771,16.656,34.637C191.1,548.31,224.371,545.9,231.835,546.236Z" transform="translate(0 27.872)" />
      <path class="cls-9" d="M632.064,531.808c.107-13.2-2.872-27.839-5.924-42.506-.921-4.483-2.2-10.795,4.165-12.544s8.488,3.453,9.573,8.587c6.466,30.835,15.286,61.368,6.179,93.441-3.422,12.042-9.781,20.894-19.793,27.584-16.694,11.173-29.92,9.8-44.517-4.4-12.537-12.2-12.537-12.2-25.925-.107-19.414,17.516-35.528,16.47-49.164-5.97-19.453-32.043-22.6-67.154-13.877-103.408a24.47,24.47,0,0,1,2.044-4.531c2.6-5.4,5.94-11.623,12.592-9.508,5.946,1.89,7.395,8.666,6.721,14.806-.635,5.754-2.052,11.42-2.957,17.16-3.284,20.908-2.511,41.605,5.557,61.343,3.285,8.038,5.731,18.647,17.455,18.554,10.337-.093,12.683-9.524,16.154-16.85,7.184-15.193,12.527-30.812,9.585-48.134a49.012,49.012,0,0,1-.038-12.367c.3-3.39,1.882-6.411,5.707-7.154,4.663-.9,8.348.844,9.743,5.381,1.951,6.32,3.329,12.825,4.861,19.258,3.657,15.349,6.863,30.82,11.066,46.013,1.959,7.053,4.748,14.768,14.581,14.418,9.247-.324,15.6-5.157,19.321-13.412C631.452,563.517,633.79,548.881,632.064,531.808Z" transform="translate(355.078 38.614)" />
      <path class="cls-9" d="M435.233,616.441c-42.356-.666-74.431-30.146-78.7-69.313-3.469-31.911,22.5-65.658,54.266-70.381,7.559-1.123,15.148-.573,21.908,3.113,21.286,11.617,36,29.349,44.487,51.728,4.584,12.086.735,17.508-14.031,20.3-18.771,3.54-37.867,5.3-56.7,8.5-6.984,1.186-16.935.737-18.927,8.828-2.214,9.022,6.63,14.48,12.669,19.916,12.685,11.414,27.955,8.433,42.761,6.545,4.847-.619,9.425-3.113,14.231-4.361,6.923-1.787,15.921-6.209,18.943,3.665,2.625,8.532-5.715,12.744-12.529,16.122C453.6,616.077,442.676,615.844,435.233,616.441Zm-36.5-75.259c14.233.285,28.086-2.5,41.955-5.143,11.4-2.184,12.428-9.1,8.425-18.445-6.318-14.784-18.787-22.921-33-21.365-17.562,1.929-36.285,16.587-38.956,30.495-1.479,7.7.658,13.272,9.16,14.357C390.406,541.607,394.6,541.174,398.738,541.182Z" transform="translate(219.988 38.424)" />
      <path class="cls-9" d="M638.676,615.623c-4.491-.293-12.691-.455-20.351-4.683-17.67-9.751-27.945-27.429-25.4-44.689,2.5-16.966,17.569-33.281,35.72-37.331,8.008-1.789,16.51-1.255,24.67-2.485,12.77-1.921,15.373-6.674,11.167-18.9-4.732-13.754-12.886-20.173-27.582-20.94-11-.565-21.294,2.364-31.144,7.249-5.9,2.935-11.623,6.822-18.576,6.5-2.317-.1-5.351-.921-6.668-2.548-2.293-2.811-1.409-6.434,1.224-8.82,18.073-16.37,39.213-25.136,63.667-22.154,21.853,2.663,32.113,18.979,38.766,37.758,9.275,26.174,7.7,54.035,11.716,81.037,1.091,7.332-3.447,12.45-9.107,16.555C673.538,611.752,658.825,616.491,638.676,615.623Zm11.4-71.464c-20.582-.2-38.624,13.025-38,27.876.595,14.094,14.146,24.812,31.895,25.223,19.119.447,28.319-8.814,28.853-29.048C673.335,549.154,668.8,544.353,650.074,544.159Z" transform="translate(448.258 28.207)" />
      <path class="cls-9" d="M382.55,486.81c.937,12.88-12.7,9.5-20.971,11.121-4.042.806-8.245.874-12.3,1.666-18.591,3.617-20.078,5.3-20.689,24.346-.271,8.277-.372,16.593.061,24.856.931,17.856,3.965,20.489,20.979,18.653,4.932-.526,9.749-2.184,14.667-2.578,7.371-.581,16.322-1.71,17.763,8.255,1.263,8.617-7.031,10.151-13.327,11.776-6.389,1.658-13.126,1.992-19.513,3.665-16.834,4.4-20.576,8.8-19.352,26.35,1.2,17.307,3.973,34.514,6.132,51.759,1.131,9.036,3.9,20.946-8.022,22.409-12.3,1.518-12.171-11.143-12.784-19.924-1.973-28.086-4.329-56.187-4.784-84.311-.411-24.949-3.471-49.559-5.622-74.316-1.564-17.949,1.184-21.294,18.56-26.536a111.9,111.9,0,0,1,16.935-3.9C346.822,479.207,381.588,473.538,382.55,486.81Z" transform="translate(166.934 40.378)" />
      <path class="cls-9" d="M680.225,451.872c.14-6.1,1.348-11.113,7.031-12.653,6.567-1.773,11.538,1.315,13.8,7.488a110.781,110.781,0,0,1,6.521,31.508c2.8,43.835,6,87.64,9.293,131.446.68,9.06,2.167,18.091,3.716,27.064,1.022,5.877,1.425,11.515-1.548,16.921-2.477,4.491-5.537,8.6-11.3,8.208-6.351-.427-7.792-5.584-8.2-10.587-1.734-21.5-4.422-43.008-4.468-64.518-.077-43.342-5.732-85.938-13.776-128.349C680.828,455.968,680.488,453.513,680.225,451.872Z" transform="translate(551.699 0.027)" />
      <path class="cls-9" d="M649.959,455.461a64.3,64.3,0,0,1,.387-6.946c.783-5.313,3.052-9.579,9.17-9.811,4.639-.17,7.634,2.354,9.384,6.612,3.206,7.8,4.2,15.96,4.91,24.3q6.855,80.634,14.1,161.246c.587,6.628,1.781,13.256-.4,19.752a9.943,9.943,0,0,1-9.091,7.249c-4.784.378-7.982-1.967-9.368-6.343-1.241-3.934-2.509-8.022-2.68-12.08-2.6-59.75-7.063-119.321-16.115-178.489C650.014,459.318,650.068,457.637,649.959,455.461Z" transform="translate(520.713 0)" />
      <path class="cls-9" d="M433.271,511.543c-.3-5.8-.874-11.584-.836-17.376.047-6.513-1.5-14.3,4.4-18.546,7.441-5.373,11.414,2.866,16.664,6.227,7.17,4.576,14.389,1.238,21.45-1.063,12.809-4.151,25.8-6.009,39.167-3.121,4.244.923,8.022,2.564,8.348,7.6.372,5.691-2.261,9.779-8.006,10.609-6.537.937-13.258.6-19.77,1.641-30.377,4.839-41.142,18.87-38.153,49.195,1.8,18.113,7.565,35.769,6.644,54.167-.31,6.132,1.649,14.921-7.642,15.688-8.557.7-10.34-7.211-11.113-13.806C440.86,572.338,434.34,542.27,433.271,511.543Z" transform="translate(297.86 35.988)" />
    </g>
  </g>
</svg>