<svg xmlns="http://www.w3.org/2000/svg" width="20.063" height="20.062" viewBox="0 0 20.063 20.062"><g transform="translate(0)"><path d="M8.568,209.254H.627a.627.627,0,0,1,0-1.254H8.568a.627.627,0,0,1,0,1.254Zm0,0" transform="translate(0 -199.85)" fill="#0d9677"/><path d="M123.3,135.508a.627.627,0,0,1-.443-1.071l2.692-2.692-2.692-2.691a.627.627,0,0,1,.887-.887l3.135,3.135a.627.627,0,0,1,0,.887l-3.135,3.135A.626.626,0,0,1,123.3,135.508Zm0,0" transform="translate(-117.865 -122.969)" fill="#0d9677"/><path d="M300.34,20.142a1.673,1.673,0,0,1-1.672-1.672V3.423A1.682,1.682,0,0,1,299.8,1.836L304.822.162a1.689,1.689,0,0,1,2.205,1.59V16.8a1.683,1.683,0,0,1-1.131,1.587l-5.024,1.675A1.749,1.749,0,0,1,300.34,20.142Zm5.016-18.809a.491.491,0,0,0-.15.022l-5,1.668a.431.431,0,0,0-.283.4V18.47a.44.44,0,0,0,.568.4l5-1.668a.432.432,0,0,0,.283-.4V1.752A.419.419,0,0,0,305.355,1.334Zm0,0" transform="translate(-286.965 -0.08)" fill="#0d9677"/><path d="M171.295,4.18a.627.627,0,0,1-.627-.627V2.3a2.3,2.3,0,0,1,2.3-2.3h9.4a.627.627,0,0,1,0,1.254h-9.4A1.046,1.046,0,0,0,171.922,2.3V3.553A.627.627,0,0,1,171.295,4.18Zm0,0" transform="translate(-163.98)" fill="#0d9677"/><path d="M176.311,345.512h-3.344a2.3,2.3,0,0,1-2.3-2.3v-1.254a.627.627,0,0,1,1.254,0v1.254a1.046,1.046,0,0,0,1.045,1.045h3.344a.627.627,0,0,1,0,1.254Zm0,0" transform="translate(-163.98 -327.957)" fill="#0d9677"/></g></svg>