<svg xmlns="http://www.w3.org/2000/svg" width="80.747" height="20" viewBox="0 0 80.747 20"><g transform="translate(-11 -4)" style="isolation:isolate"><text transform="translate(28.747 20)" fill="#ed4060" font-size="15" font-family="OpenSans-Semibold, Open Sans" font-weight="600"><tspan x="0" y="0">Malwear</tspan></text><g transform="translate(11 7.967)" style="isolation:isolate"><g transform="translate(3.792 0)"><path d="M147.414,1.21l.292-.657a.392.392,0,1,0-.717-.319l-.42.944h-1.582l-.42-.944a.392.392,0,0,0-.717.319l.292.657a1.7,1.7,0,0,0-1.372,1.668v.654h6.016V2.878A1.7,1.7,0,0,0,147.414,1.21Z" transform="translate(-142.771 0)" fill="#ed4060"/></g><g transform="translate(0 2.746)"><path d="M13.21,107.572H10.856v-.816a2.489,2.489,0,0,0,2.092-2.454v-.523a.392.392,0,1,0-.785,0v.523a1.7,1.7,0,0,1-1.308,1.654v-.346a.655.655,0,0,0-.654-.654H7.195v4.577a.392.392,0,0,1-.785,0v-4.577H3.4a.655.655,0,0,0-.654.654v.346A1.7,1.7,0,0,1,1.441,104.3v-.523a.392.392,0,1,0-.785,0v.523a2.489,2.489,0,0,0,2.092,2.454v.816H.394a.392.392,0,1,0,0,.785H2.748v.816a2.489,2.489,0,0,0-2.092,2.454v.523a.392.392,0,1,0,.785,0v-.523a1.7,1.7,0,0,1,1.308-1.654v.215a4.054,4.054,0,1,0,8.108,0v-.215a1.7,1.7,0,0,1,1.308,1.654v.523a.392.392,0,1,0,.785,0v-.523a2.489,2.489,0,0,0-2.092-2.454v-.816H13.21a.392.392,0,0,0,0-.785Z" transform="translate(-0.002 -103.387)" fill="#ed4060"/></g></g></g></svg>